<svg xmlns="http://www.w3.org/2000/svg" width="1500" height="980" viewBox="0 0 1500 980">
<defs>
<marker id="arrow" markerWidth="12" markerHeight="12" refX="10" refY="6" orient="auto" markerUnits="strokeWidth"><path d="M2,2 L10,6 L2,10 z" fill="#7FA9B5"/></marker>
<filter id="shadow" x="-20%" y="-20%" width="140%" height="140%"><feDropShadow dx="3" dy="5" stdDeviation="4" flood-color="#9AB2BD" flood-opacity="0.45"/></filter>
</defs>
<rect width="1500" height="980" fill="#EEF3F6"/>
<rect x="50" y="45" width="1400" height="100" rx="26" fill="#073B4C"/>
<text x="75.0" y="84.0" text-anchor="start" font-family="Segoe UI, Arial, sans-serif" font-size="28" font-weight="700" fill="#DDF7F5">Figure 3.2</text>
<text x="75.0" y="118.0" text-anchor="start" font-family="Segoe UI, Arial, sans-serif" font-size="25" font-weight="700" fill="#FFFFFF">Requirements Traceability Model</text>
<text x="75.0" y="150.0" text-anchor="start" font-family="Segoe UI, Arial, sans-serif" font-size="25" font-weight="700" fill="#FFFFFF">for SERPS</text>
<rect x="500" y="190" width="500" height="72" rx="18" fill="#DDF7F5" stroke="#0F8B8D" stroke-width="3" filter="url(#shadow)"/>
<text x="750.0" y="234.5" text-anchor="middle" font-family="Segoe UI, Arial, sans-serif" font-size="24" font-weight="700" fill="#042A3A">Stakeholder Requirements</text>
<rect x="500" y="290" width="500" height="72" rx="18" fill="#FFFFFF" stroke="#0F8B8D" stroke-width="3" filter="url(#shadow)"/>
<text x="750.0" y="333.0" text-anchor="middle" font-family="Segoe UI, Arial, sans-serif" font-size="21" font-weight="500" fill="#042A3A">Functional Requirements</text>
<line x1="750.0" y1="265" x2="750.0" y2="286" stroke="#7FA9B5" stroke-width="4" marker-end="url(#arrow)"/>
<rect x="500" y="390" width="500" height="72" rx="18" fill="#FFFFFF" stroke="#0F8B8D" stroke-width="3" filter="url(#shadow)"/>
<text x="750.0" y="433.0" text-anchor="middle" font-family="Segoe UI, Arial, sans-serif" font-size="21" font-weight="500" fill="#042A3A">Non-functional Requirements</text>
<line x1="750.0" y1="365" x2="750.0" y2="386" stroke="#7FA9B5" stroke-width="4" marker-end="url(#arrow)"/>
<rect x="500" y="490" width="500" height="72" rx="18" fill="#FFFFFF" stroke="#0F8B8D" stroke-width="3" filter="url(#shadow)"/>
<text x="750.0" y="533.0" text-anchor="middle" font-family="Segoe UI, Arial, sans-serif" font-size="21" font-weight="500" fill="#042A3A">System Modules</text>
<line x1="750.0" y1="465" x2="750.0" y2="486" stroke="#7FA9B5" stroke-width="4" marker-end="url(#arrow)"/>
<rect x="500" y="590" width="500" height="72" rx="18" fill="#FFFFFF" stroke="#0F8B8D" stroke-width="3" filter="url(#shadow)"/>
<text x="750.0" y="633.0" text-anchor="middle" font-family="Segoe UI, Arial, sans-serif" font-size="21" font-weight="500" fill="#042A3A">Implementation</text>
<line x1="750.0" y1="565" x2="750.0" y2="586" stroke="#7FA9B5" stroke-width="4" marker-end="url(#arrow)"/>
<rect x="500" y="690" width="500" height="72" rx="18" fill="#FFFFFF" stroke="#0F8B8D" stroke-width="3" filter="url(#shadow)"/>
<text x="750.0" y="733.0" text-anchor="middle" font-family="Segoe UI, Arial, sans-serif" font-size="21" font-weight="500" fill="#042A3A">Testing</text>
<line x1="750.0" y1="665" x2="750.0" y2="686" stroke="#7FA9B5" stroke-width="4" marker-end="url(#arrow)"/>
<rect x="500" y="790" width="500" height="72" rx="18" fill="#DDF7F5" stroke="#0F8B8D" stroke-width="3" filter="url(#shadow)"/>
<text x="750.0" y="833.0" text-anchor="middle" font-family="Segoe UI, Arial, sans-serif" font-size="21" font-weight="500" fill="#042A3A">Objective Verification</text>
<line x1="750.0" y1="765" x2="750.0" y2="786" stroke="#7FA9B5" stroke-width="4" marker-end="url(#arrow)"/>
<text x="1430.0" y="935.0" text-anchor="end" font-family="Segoe UI, Arial, sans-serif" font-size="18" font-weight="500" fill="#60717C">SERPS Architecture</text>
</svg>