<svg xmlns="http://www.w3.org/2000/svg" width="1700" height="1120" viewBox="0 0 1700 1120">
<defs>
<marker id="arrow" markerWidth="12" markerHeight="12" refX="10" refY="6" orient="auto" markerUnits="strokeWidth"><path d="M2,2 L10,6 L2,10 z" fill="#7FA9B5"/></marker>
<filter id="shadow" x="-20%" y="-20%" width="140%" height="140%"><feDropShadow dx="3" dy="5" stdDeviation="4" flood-color="#9AB2BD" flood-opacity="0.45"/></filter>
</defs>
<rect width="1700" height="1120" fill="#EEF3F6"/>
<rect x="50" y="45" width="1600" height="100" rx="26" fill="#073B4C"/>
<text x="75.0" y="84.0" text-anchor="start" font-family="Segoe UI, Arial, sans-serif" font-size="28" font-weight="700" fill="#DDF7F5">Figure 3.1</text>
<text x="75.0" y="118.0" text-anchor="start" font-family="Segoe UI, Arial, sans-serif" font-size="25" font-weight="700" fill="#FFFFFF">Hybrid Design Science Research</text>
<text x="75.0" y="150.0" text-anchor="start" font-family="Segoe UI, Arial, sans-serif" font-size="25" font-weight="700" fill="#FFFFFF">and Agile Development Process</text>
<text x="75.0" y="182.0" text-anchor="start" font-family="Segoe UI, Arial, sans-serif" font-size="25" font-weight="700" fill="#FFFFFF">Adopted for SERPS</text>
<rect x="115" y="210" width="430" height="78" rx="18" fill="#DDF7F5" stroke="#0F8B8D" stroke-width="3" filter="url(#shadow)"/>
<text x="330.0" y="257.5" text-anchor="middle" font-family="Segoe UI, Arial, sans-serif" font-size="24" font-weight="700" fill="#042A3A">Problem Identification</text>
<rect x="115" y="316" width="430" height="78" rx="18" fill="#FFFFFF" stroke="#0F8B8D" stroke-width="3" filter="url(#shadow)"/>
<text x="330.0" y="362.0" text-anchor="middle" font-family="Segoe UI, Arial, sans-serif" font-size="21" font-weight="500" fill="#042A3A">Literature Review</text>
<line x1="330.0" y1="291" x2="330.0" y2="312" stroke="#7FA9B5" stroke-width="4" marker-end="url(#arrow)"/>
<rect x="115" y="422" width="430" height="78" rx="18" fill="#FFFFFF" stroke="#0F8B8D" stroke-width="3" filter="url(#shadow)"/>
<text x="330.0" y="468.0" text-anchor="middle" font-family="Segoe UI, Arial, sans-serif" font-size="21" font-weight="500" fill="#042A3A">Requirements Analysis</text>
<line x1="330.0" y1="397" x2="330.0" y2="418" stroke="#7FA9B5" stroke-width="4" marker-end="url(#arrow)"/>
<rect x="115" y="528" width="430" height="78" rx="18" fill="#FFFFFF" stroke="#0F8B8D" stroke-width="3" filter="url(#shadow)"/>
<text x="330.0" y="574.0" text-anchor="middle" font-family="Segoe UI, Arial, sans-serif" font-size="21" font-weight="500" fill="#042A3A">System Architecture</text>
<line x1="330.0" y1="503" x2="330.0" y2="524" stroke="#7FA9B5" stroke-width="4" marker-end="url(#arrow)"/>
<rect x="115" y="634" width="430" height="78" rx="18" fill="#DDF7F5" stroke="#0F8B8D" stroke-width="3" filter="url(#shadow)"/>
<text x="330.0" y="680.0" text-anchor="middle" font-family="Segoe UI, Arial, sans-serif" font-size="21" font-weight="500" fill="#042A3A">Prototype Design</text>
<line x1="330.0" y1="609" x2="330.0" y2="630" stroke="#7FA9B5" stroke-width="4" marker-end="url(#arrow)"/>
<rect x="880" y="230" width="270" height="86" rx="18" fill="#DDF7F5" stroke="#0F8B8D" stroke-width="3" filter="url(#shadow)"/>
<text x="1015.0" y="280.0" text-anchor="middle" font-family="Segoe UI, Arial, sans-serif" font-size="21" font-weight="500" fill="#042A3A">Sprint Planning</text>
<rect x="1220" y="230" width="270" height="86" rx="18" fill="#FFFFFF" stroke="#0F8B8D" stroke-width="3" filter="url(#shadow)"/>
<text x="1355.0" y="280.0" text-anchor="middle" font-family="Segoe UI, Arial, sans-serif" font-size="21" font-weight="500" fill="#042A3A">Implementation</text>
<rect x="1220" y="485" width="270" height="86" rx="18" fill="#FFFFFF" stroke="#0F8B8D" stroke-width="3" filter="url(#shadow)"/>
<text x="1355.0" y="535.0" text-anchor="middle" font-family="Segoe UI, Arial, sans-serif" font-size="21" font-weight="500" fill="#042A3A">Testing</text>
<rect x="880" y="485" width="270" height="86" rx="18" fill="#FFFFFF" stroke="#0F8B8D" stroke-width="3" filter="url(#shadow)"/>
<text x="1015.0" y="535.0" text-anchor="middle" font-family="Segoe UI, Arial, sans-serif" font-size="21" font-weight="500" fill="#042A3A">Sprint Review</text>
<rect x="710" y="358" width="270" height="86" rx="18" fill="#FFFFFF" stroke="#0F8B8D" stroke-width="3" filter="url(#shadow)"/>
<text x="845.0" y="408.0" text-anchor="middle" font-family="Segoe UI, Arial, sans-serif" font-size="21" font-weight="500" fill="#042A3A">Refinement</text>
<line x1="1015" y1="273" x2="1220" y2="273" stroke="#7FA9B5" stroke-width="4" marker-end="url(#arrow)"/>
<line x1="1220" y1="273" x2="1355" y2="316" stroke="#7FA9B5" stroke-width="4" marker-end="url(#arrow)"/>
<line x1="1355" y1="316" x2="1355" y2="485" stroke="#7FA9B5" stroke-width="4" marker-end="url(#arrow)"/>
<line x1="1355" y1="485" x2="1220" y2="528" stroke="#7FA9B5" stroke-width="4" marker-end="url(#arrow)"/>
<line x1="1220" y1="528" x2="1015" y2="528" stroke="#7FA9B5" stroke-width="4" marker-end="url(#arrow)"/>
<line x1="1015" y1="528" x2="880" y2="528" stroke="#7FA9B5" stroke-width="4" marker-end="url(#arrow)"/>
<line x1="880" y1="528" x2="845" y2="444" stroke="#7FA9B5" stroke-width="4" marker-end="url(#arrow)"/>
<line x1="845" y1="444" x2="845" y2="401" stroke="#7FA9B5" stroke-width="4" marker-end="url(#arrow)"/>
<line x1="845" y1="401" x2="880" y2="316" stroke="#7FA9B5" stroke-width="4" marker-end="url(#arrow)"/>
<line x1="880" y1="316" x2="1015" y2="273" stroke="#7FA9B5" stroke-width="4" marker-end="url(#arrow)"/>
<line x1="545" y1="634" x2="710" y2="401" stroke="#7FA9B5" stroke-width="4" marker-end="url(#arrow)"/>
<text x="627.5" y="503.5" text-anchor="middle" font-family="Segoe UI, Arial, sans-serif" font-size="18" font-weight="600" fill="#042A3A">prototype to sprint</text>
<line x1="845" y1="444" x2="880" y2="273" stroke="#7FA9B5" stroke-width="4" marker-end="url(#arrow)"/>
<text x="862.5" y="344.5" text-anchor="middle" font-family="Segoe UI, Arial, sans-serif" font-size="18" font-weight="600" fill="#042A3A">return</text>
<rect x="760" y="760" width="620" height="86" rx="18" fill="#FFF4D6" stroke="#0F8B8D" stroke-width="3" filter="url(#shadow)"/>
<text x="1070.0" y="811.5" text-anchor="middle" font-family="Segoe UI, Arial, sans-serif" font-size="24" font-weight="700" fill="#042A3A">Final Evaluation</text>
<rect x="760" y="900" width="620" height="86" rx="18" fill="#DDF7F5" stroke="#0F8B8D" stroke-width="3" filter="url(#shadow)"/>
<text x="1070.0" y="951.5" text-anchor="middle" font-family="Segoe UI, Arial, sans-serif" font-size="24" font-weight="700" fill="#042A3A">Documentation and Dissertation</text>
<text x="1070.0" y="982.5" text-anchor="middle" font-family="Segoe UI, Arial, sans-serif" font-size="24" font-weight="700" fill="#042A3A">Evidence</text>
<line x1="1035" y1="571" x2="1035" y2="760" stroke="#7FA9B5" stroke-width="4" marker-end="url(#arrow)"/>
<line x1="1070" y1="846" x2="1070" y2="900" stroke="#7FA9B5" stroke-width="4" marker-end="url(#arrow)"/>
<text x="220.0" y="980.0" text-anchor="middle" font-family="Segoe UI, Arial, sans-serif" font-size="22" font-weight="500" fill="#60717C">DSR establishes the research</text>
<text x="220.0" y="1009.0" text-anchor="middle" font-family="Segoe UI, Arial, sans-serif" font-size="22" font-weight="500" fill="#60717C">artefact; Agile controls</text>
<text x="220.0" y="1038.0" text-anchor="middle" font-family="Segoe UI, Arial, sans-serif" font-size="22" font-weight="500" fill="#60717C">iterative prototype</text>
<text x="220.0" y="1067.0" text-anchor="middle" font-family="Segoe UI, Arial, sans-serif" font-size="22" font-weight="500" fill="#60717C">implementation.</text>
<text x="1630.0" y="1075.0" text-anchor="end" font-family="Segoe UI, Arial, sans-serif" font-size="18" font-weight="500" fill="#60717C">SERPS Architecture</text>
</svg>