<svg xmlns="http://www.w3.org/2000/svg" width="1920" height="1320" viewBox="0 0 1920 1320">
<defs>
<marker id="arrow" markerWidth="12" markerHeight="12" refX="10" refY="6" orient="auto" markerUnits="strokeWidth"><path d="M2,2 L10,6 L2,10 z" fill="#000000"/></marker>
<filter id="shadow" x="-20%" y="-20%" width="140%" height="140%"><feDropShadow dx="3" dy="5" stdDeviation="4" flood-color="#9AB2BD" flood-opacity="0.45"/></filter>
</defs>
<text x="75.0" y="84.0" text-anchor="start" font-family="Segoe UI, Arial, sans-serif" font-size="28" font-weight="700" fill="#000000">Figure 3.3</text>
<text x="75.0" y="118.0" text-anchor="start" font-family="Segoe UI, Arial, sans-serif" font-size="25" font-weight="700" fill="#000000">Overall System Architecture of</text>
<text x="75.0" y="150.0" text-anchor="start" font-family="Segoe UI, Arial, sans-serif" font-size="25" font-weight="700" fill="#000000">SERPS</text>
<rect x="120" y="170" width="1660" height="62" rx="18" fill="none" stroke="#000000" stroke-width="3"/>
<text x="950.0" y="209.5" text-anchor="middle" font-family="Segoe UI, Arial, sans-serif" font-size="24" font-weight="700" fill="#000000">Actors and Browsers: Candidate |</text>
<text x="950.0" y="240.5" text-anchor="middle" font-family="Segoe UI, Arial, sans-serif" font-size="24" font-weight="700" fill="#000000">Reviewer/Proctor | Administrator</text>
<text x="950.0" y="271.5" text-anchor="middle" font-family="Segoe UI, Arial, sans-serif" font-size="24" font-weight="700" fill="#000000">| System Administrator</text>
<rect x="120" y="275" width="1660" height="58" rx="18" fill="none" stroke="#000000" stroke-width="3"/>
<text x="950.0" y="311.0" text-anchor="middle" font-family="Segoe UI, Arial, sans-serif" font-size="21" font-weight="500" fill="#000000">Presentation Layer: candidate</text>
<text x="950.0" y="339.0" text-anchor="middle" font-family="Segoe UI, Arial, sans-serif" font-size="21" font-weight="500" fill="#000000">UI, reviewer console and</text>
<text x="950.0" y="367.0" text-anchor="middle" font-family="Segoe UI, Arial, sans-serif" font-size="21" font-weight="500" fill="#000000">administrator dashboard</text>
<rect x="250" y="385" width="300" height="58" rx="18" fill="none" stroke="#000000" stroke-width="3"/>
<text x="400.0" y="421.0" text-anchor="middle" font-family="Segoe UI, Arial, sans-serif" font-size="21" font-weight="500" fill="#000000">REST API</text>
<rect x="800" y="385" width="300" height="58" rx="18" fill="none" stroke="#000000" stroke-width="3"/>
<text x="950.0" y="421.0" text-anchor="middle" font-family="Segoe UI, Arial, sans-serif" font-size="21" font-weight="500" fill="#000000">WebSocket / SSE</text>
<rect x="1350" y="385" width="300" height="58" rx="18" fill="none" stroke="#000000" stroke-width="3"/>
<text x="1500.0" y="421.0" text-anchor="middle" font-family="Segoe UI, Arial, sans-serif" font-size="21" font-weight="500" fill="#000000">WebRTC Boundary</text>
<rect x="120" y="495" width="1660" height="62" rx="18" fill="none" stroke="#000000" stroke-width="3"/>
<text x="950.0" y="534.5" text-anchor="middle" font-family="Segoe UI, Arial, sans-serif" font-size="24" font-weight="700" fill="#000000">FastAPI Application Services</text>
<rect x="135" y="615" width="285" height="62" rx="18" fill="none" stroke="#000000" stroke-width="3"/>
<text x="277.5" y="653.0" text-anchor="middle" font-family="Segoe UI, Arial, sans-serif" font-size="21" font-weight="500" fill="#000000">Camera Manager</text>
<rect x="455" y="615" width="285" height="62" rx="18" fill="none" stroke="#000000" stroke-width="3"/>
<text x="597.5" y="653.0" text-anchor="middle" font-family="Segoe UI, Arial, sans-serif" font-size="21" font-weight="500" fill="#000000">Authentication</text>
<rect x="775" y="615" width="285" height="62" rx="18" fill="none" stroke="#000000" stroke-width="3"/>
<text x="917.5" y="653.0" text-anchor="middle" font-family="Segoe UI, Arial, sans-serif" font-size="21" font-weight="500" fill="#000000">Candidate / Exam</text>
<rect x="1095" y="615" width="285" height="62" rx="18" fill="none" stroke="#000000" stroke-width="3"/>
<text x="1237.5" y="653.0" text-anchor="middle" font-family="Segoe UI, Arial, sans-serif" font-size="21" font-weight="500" fill="#000000">Session Control</text>
<rect x="1415" y="615" width="285" height="62" rx="18" fill="none" stroke="#000000" stroke-width="3"/>
<text x="1557.5" y="653.0" text-anchor="middle" font-family="Segoe UI, Arial, sans-serif" font-size="21" font-weight="500" fill="#000000">Reports / Audit</text>
<rect x="135" y="755" width="285" height="70" rx="18" fill="none" stroke="#000000" stroke-width="3"/>
<text x="277.5" y="783.0" text-anchor="middle" font-family="Segoe UI, Arial, sans-serif" font-size="21" font-weight="500" fill="#000000">Detection</text>
<text x="277.5" y="811.0" text-anchor="middle" font-family="Segoe UI, Arial, sans-serif" font-size="21" font-weight="500" fill="#000000">Modules</text>
<rect x="775" y="755" width="285" height="70" rx="18" fill="none" stroke="#000000" stroke-width="3"/>
<text x="917.5" y="797.0" text-anchor="middle" font-family="Segoe UI, Arial, sans-serif" font-size="21" font-weight="500" fill="#000000">Evidence Service</text>
<rect x="500" y="910" width="285" height="78" rx="18" fill="none" stroke="#000000" stroke-width="3"/>
<text x="642.5" y="942.0" text-anchor="middle" font-family="Segoe UI, Arial, sans-serif" font-size="24" font-weight="700" fill="#000000">Structured</text>
<text x="642.5" y="973.0" text-anchor="middle" font-family="Segoe UI, Arial, sans-serif" font-size="24" font-weight="700" fill="#000000">EvidenceEvent</text>
<rect x="850" y="910" width="160" height="78" rx="18" fill="none" stroke="#000000" stroke-width="3"/>
<text x="930.0" y="957.5" text-anchor="middle" font-family="Segoe UI, Arial, sans-serif" font-size="24" font-weight="700" fill="#000000">CIE</text>
<rect x="1070" y="910" width="245" height="78" rx="18" fill="none" stroke="#000000" stroke-width="3"/>
<text x="1192.5" y="942.0" text-anchor="middle" font-family="Segoe UI, Arial, sans-serif" font-size="24" font-weight="700" fill="#000000">Agentic Decision</text>
<text x="1192.5" y="973.0" text-anchor="middle" font-family="Segoe UI, Arial, sans-serif" font-size="24" font-weight="700" fill="#000000">Support</text>
<rect x="1380" y="910" width="170" height="78" rx="18" fill="none" stroke="#000000" stroke-width="3"/>
<text x="1465.0" y="957.5" text-anchor="middle" font-family="Segoe UI, Arial, sans-serif" font-size="24" font-weight="700" fill="#000000">IPIME</text>
<rect x="1610" y="910" width="220" height="78" rx="18" fill="none" stroke="#000000" stroke-width="3"/>
<text x="1720.0" y="942.0" text-anchor="middle" font-family="Segoe UI, Arial, sans-serif" font-size="21" font-weight="500" fill="#000000">Human</text>
<text x="1720.0" y="970.0" text-anchor="middle" font-family="Segoe UI, Arial, sans-serif" font-size="21" font-weight="500" fill="#000000">Reviewer</text>
<rect x="1610" y="1045" width="220" height="80" rx="18" fill="none" stroke="#000000" stroke-width="3"/>
<text x="1720.0" y="1064.0" text-anchor="middle" font-family="Segoe UI, Arial, sans-serif" font-size="21" font-weight="500" fill="#000000">Final Institutional</text>
<text x="1720.0" y="1092.0" text-anchor="middle" font-family="Segoe UI, Arial, sans-serif" font-size="21" font-weight="500" fill="#000000">Decision</text>
<rect x="180" y="1135" width="330" height="112" rx="18" fill="none" stroke="#000000" stroke-width="3"/>
<text x="345.0" y="1184.0" text-anchor="middle" font-family="Segoe UI, Arial, sans-serif" font-size="24" font-weight="700" fill="#000000">PostgreSQL</text>
<text x="345.0" y="1215.0" text-anchor="middle" font-family="Segoe UI, Arial, sans-serif" font-size="24" font-weight="700" fill="#000000">Relational persistence</text>
<rect x="650" y="1135" width="330" height="112" rx="18" fill="none" stroke="#000000" stroke-width="3"/>
<text x="815.0" y="1184.0" text-anchor="middle" font-family="Segoe UI, Arial, sans-serif" font-size="24" font-weight="700" fill="#000000">Evidence Storage</text>
<text x="815.0" y="1215.0" text-anchor="middle" font-family="Segoe UI, Arial, sans-serif" font-size="24" font-weight="700" fill="#000000">Snapshots and artefacts</text>
<rect x="1280" y="1135" width="360" height="112" rx="18" fill="none" stroke="#000000" stroke-width="3"/>
<text x="1460.0" y="1184.0" text-anchor="middle" font-family="Segoe UI, Arial, sans-serif" font-size="24" font-weight="700" fill="#000000">Documentation / Reports</text>
<text x="1460.0" y="1215.0" text-anchor="middle" font-family="Segoe UI, Arial, sans-serif" font-size="24" font-weight="700" fill="#000000">Traceable exports</text>
<line x1="950" y1="232" x2="950" y2="275" stroke="#000000" stroke-width="4" marker-end="url(#arrow)"/>
<line x1="950" y1="333" x2="400" y2="385" stroke="#000000" stroke-width="4" marker-end="url(#arrow)"/>
<line x1="950" y1="333" x2="950" y2="385" stroke="#000000" stroke-width="4" marker-end="url(#arrow)"/>
<line x1="950" y1="333" x2="1500" y2="385" stroke="#000000" stroke-width="4" marker-end="url(#arrow)"/>
<line x1="400" y1="443" x2="950" y2="495" stroke="#000000" stroke-width="4" marker-end="url(#arrow)"/>
<line x1="950" y1="443" x2="950" y2="495" stroke="#000000" stroke-width="4" marker-end="url(#arrow)"/>
<line x1="1500" y1="443" x2="950" y2="495" stroke="#000000" stroke-width="4" marker-end="url(#arrow)"/>
<line x1="277" y1="557" x2="277" y2="615" stroke="#000000" stroke-width="4" marker-end="url(#arrow)"/>
<line x1="597" y1="557" x2="597" y2="615" stroke="#000000" stroke-width="4" marker-end="url(#arrow)"/>
<line x1="917" y1="557" x2="917" y2="615" stroke="#000000" stroke-width="4" marker-end="url(#arrow)"/>
<line x1="1237" y1="557" x2="1237" y2="615" stroke="#000000" stroke-width="4" marker-end="url(#arrow)"/>
<line x1="1557" y1="557" x2="1557" y2="615" stroke="#000000" stroke-width="4" marker-end="url(#arrow)"/>
<line x1="277" y1="677" x2="277" y2="755" stroke="#000000" stroke-width="4" marker-end="url(#arrow)"/>
<text x="277.0" y="702.0" text-anchor="middle" font-family="Segoe UI, Arial, sans-serif" font-size="18" font-weight="600" fill="#000000">frames / health</text>
<line x1="917" y1="677" x2="917" y2="755" stroke="#000000" stroke-width="4" marker-end="url(#arrow)"/>
<line x1="277" y1="825" x2="500" y2="949" stroke="#000000" stroke-width="4" marker-end="url(#arrow)"/>
<line x1="917" y1="825" x2="642" y2="910" stroke="#000000" stroke-width="4" marker-end="url(#arrow)"/>
<text x="779.5" y="853.5" text-anchor="middle" font-family="Segoe UI, Arial, sans-serif" font-size="18" font-weight="600" fill="#000000">stored event</text>
<line x1="785" y1="949" x2="850" y2="949" stroke="#000000" stroke-width="4" marker-end="url(#arrow)"/>
<line x1="1010" y1="949" x2="1070" y2="949" stroke="#000000" stroke-width="4" marker-end="url(#arrow)"/>
<line x1="1315" y1="949" x2="1380" y2="949" stroke="#000000" stroke-width="4" marker-end="url(#arrow)"/>
<line x1="1550" y1="949" x2="1610" y2="949" stroke="#000000" stroke-width="4" marker-end="url(#arrow)"/>
<line x1="1720" y1="988" x2="1720" y2="1045" stroke="#000000" stroke-width="4" marker-end="url(#arrow)"/>
<line x1="642" y1="988" x2="345" y2="1135" stroke="#000000" stroke-width="4" stroke-dasharray="8 7" marker-end="url(#arrow)"/>
<text x="493.5" y="1047.5" text-anchor="middle" font-family="Segoe UI, Arial, sans-serif" font-size="18" font-weight="600" fill="#000000">persist</text>
<line x1="642" y1="988" x2="815" y2="1135" stroke="#000000" stroke-width="4" stroke-dasharray="8 7" marker-end="url(#arrow)"/>
<text x="728.5" y="1047.5" text-anchor="middle" font-family="Segoe UI, Arial, sans-serif" font-size="18" font-weight="600" fill="#000000">snapshots</text>
<text x="1850.0" y="1275.0" text-anchor="end" font-family="Segoe UI, Arial, sans-serif" font-size="18" font-weight="500" fill="#000000">SERPS Architecture</text>
</svg>